<?xml version="1.0" encoding="UTF-8"?>
<svg width="47px" height="47px" viewBox="0 0 47 47" version="1.1" xmlns="http://www.w3.org/2000/svg" xmlns:xlink="http://www.w3.org/1999/xlink">
    <!-- Generator: sketchtool 52.5 (67469) - http://www.bohemiancoding.com/sketch -->
    <title>BC0B7E53-93F5-41EC-99EB-F1EB8FAAA5F2</title>
    <desc>Created with sketchtool.</desc>
    <defs>
        <linearGradient x1="87.871587%" y1="12.2899905%" x2="12.3116827%" y2="85.7486414%" id="linearGradient-1">
            <stop stop-color="#47AAE9" offset="0%"></stop>
            <stop stop-color="#59BB9D" stop-opacity="0.27306952" offset="51.214776%"></stop>
            <stop stop-color="#6ACB54" offset="100%"></stop>
        </linearGradient>
        <linearGradient x1="14.8842895%" y1="15.9851473%" x2="89.4574885%" y2="86.5001654%" id="linearGradient-2">
            <stop stop-color="#AF55DD" offset="0%"></stop>
            <stop stop-color="#CF788A" stop-opacity="0.893823596" offset="46.396315%"></stop>
            <stop stop-color="#F4A02A" offset="100%"></stop>
        </linearGradient>
    </defs>
    <g id="Change-Now" stroke="none" stroke-width="1" fill="none" fill-rule="evenodd">
        <g id="BTC-to-NEO_error" transform="translate(-28.000000, -34.000000)">
            <g id="logo_swap" transform="translate(28.000000, 34.000000)">
                <g>
                    <g id="Group" fill-rule="nonzero">
                        <circle id="Oval" fill="#AF55DD" cx="8.424" cy="7.952" r="7.92"></circle>
                        <circle id="Oval" fill="#47AAE9" cx="38.784" cy="7.952" r="7.92"></circle>
                        <circle id="Oval" fill="#6ACB54" cx="8.424" cy="38.312" r="7.92"></circle>
                        <circle id="Oval" fill="#F4A02A" cx="38.784" cy="38.312" r="7.92"></circle>
                        <path d="M4.65382038,31.3077771 C12.2222317,27.7275871 17.7308395,24.2365178 21.1796437,20.8345693 C24.6284479,17.4326208 28.0920644,12.0456343 31.5704934,4.67360984 L42.4070357,14.9864304 C34.6080059,18.5723903 28.9276536,22.1736282 25.3659786,25.790144 C24.8050646,26.3596945 24.2615454,26.9749721 23.7158432,27.6289202 C23.7179334,27.6264153 25.0960791,29.4375684 26.248715,31.4797618 C25.443867,31.0827466 22.1739234,29.6943702 20.4103923,32.1343838 C19.0155416,34.064293 17.4123941,37.2674984 15.6009497,41.744 L4.65382038,31.3077771 Z" id="Path-4" fill="url(#linearGradient-1)"></path>
                        <path d="M4.62793404,14.9528381 C13.6589419,19.2851348 19.4752221,22.8404267 22.0767746,25.6187138 C24.678327,28.3970009 27.9291289,33.9100293 31.8291802,42.1577989 L42.871508,31.4797618 C35.5099562,27.0707571 30.1176944,23.2991657 26.6947227,20.1649877 C25.8456291,19.3875315 24.9944573,18.495639 24.1110384,17.4651857 C24.1079652,17.4616011 25.1065147,16.2674678 26.9134197,13.3757058 C26.8860715,13.3401275 22.7227977,15.476 20.5116467,12.8177742 C19.2708902,11.3261479 17.6300236,8.58524032 15.589047,4.59505159 L4.62793404,14.9528381 Z" id="Path-5" fill="url(#linearGradient-2)" opacity="0.905575707"></path>
                    </g>
                    <g id="logo_Gas2" transform="translate(5.124000, 34.682000)" fill="#FFFFFF">
                        <polygon id="Path-9" points="3.96 2.34748641 3.96 5.11831705 6.6 6.369 6.6 1.353"></polygon>
                        <polygon id="Path-7" points="0.066 1.40500299 3.85617878 0 6.501 1.21182622 2.70652548 2.64"></polygon>
                        <polygon id="Path-9" points="0 1.518 0 6.30344953 2.64 7.557 2.64 2.7529342"></polygon>
                    </g>
                    <g id="tokens/ic_ONT" transform="translate(35.880000, 4.388000)" fill="#FFFFFF">
                        <g id="ONT" transform="translate(0.000000, 0.165000)">
                            <path d="M0,1.59249456 C0,2.64407604 0.00317847025,3.18698044 0.00934844193,3.19079909 C0.0149575071,3.19428975 0.0186968839,3.25787146 0.0186968839,3.35010477 C0.0186968839,3.44233807 0.0224362606,3.50591978 0.0280453258,3.50941045 C0.0331869688,3.51259656 0.0373937677,3.54633188 0.0373937677,3.58437783 C0.0373937677,3.62242377 0.0416005666,3.65615909 0.0467422096,3.65934521 C0.0518838527,3.66253132 0.0560906516,3.68513867 0.0560906516,3.70957335 C0.0560906516,3.73400803 0.0598767705,3.75799759 0.0644808782,3.7628939 C0.0690849858,3.76779021 0.0753951841,3.78971817 0.0785035411,3.8116227 C0.0930637394,3.91458571 0.0964291785,3.92812669 0.108558782,3.93281215 C0.1165517,3.93588113 0.121529745,3.9518117 0.121529745,3.97427848 C0.121529745,3.99433226 0.125736544,4.0107548 0.130878187,4.0107548 C0.13601983,4.0107548 0.140226629,4.02762246 0.140226629,4.04823849 C0.140226629,4.06885452 0.144433428,4.08572218 0.149575071,4.08572218 C0.154716714,4.08572218 0.158923513,4.10048138 0.158923513,4.11852041 C0.158923513,4.13655943 0.162359065,4.15131863 0.166589235,4.15131863 C0.170796034,4.15131863 0.180050992,4.17266091 0.187132436,4.19875893 C0.194213881,4.22485695 0.203398725,4.24830768 0.20751204,4.25086126 C0.211648725,4.25341483 0.215014164,4.26791634 0.215014164,4.2830738 C0.215014164,4.29823127 0.219220963,4.31062432 0.224362606,4.31062432 C0.229504249,4.31062432 0.233711048,4.3211666 0.233711048,4.33405162 C0.233711048,4.34693664 0.237917847,4.35747893 0.24305949,4.35747893 C0.248201133,4.35747893 0.252407932,4.36802122 0.252407932,4.38090623 C0.252407932,4.39379125 0.256614731,4.40433354 0.261756374,4.40433354 C0.266898017,4.40433354 0.271104816,4.40972182 0.271104816,4.41628147 C0.271104816,4.42286454 0.283584986,4.45343717 0.298846317,4.48422065 C0.31413102,4.51502756 0.326751416,4.54496766 0.326891643,4.55077763 C0.327055241,4.5565876 0.333505666,4.56659106 0.34121813,4.57301014 C0.348930595,4.57942923 0.355240793,4.59165828 0.355240793,4.60020925 C0.355240793,4.60873679 0.363654391,4.62180922 0.373937677,4.62923568 C0.384220963,4.63666213 0.392634561,4.64755583 0.392634561,4.65341266 C0.392634561,4.66732848 0.451296034,4.78291881 0.460410765,4.78697173 C0.464266997,4.78870535 0.467422096,4.79608495 0.467422096,4.80337084 C0.467422096,4.81068016 0.471628895,4.81665413 0.476770538,4.81665413 C0.481912181,4.81665413 0.48611898,4.82218297 0.48611898,4.82895346 C0.48611898,4.83570053 0.494088527,4.84980376 0.503810907,4.86027577 C0.513556657,4.87074778 0.527929887,4.89157465 0.535759207,4.90656813 C0.543565156,4.92153818 0.558733003,4.9430913 0.56946034,4.95447697 C0.580187677,4.96586264 0.588951841,4.97956761 0.588951841,4.98493247 C0.588951841,4.99029732 0.59315864,4.99470165 0.598300283,4.99470165 C0.603441926,4.99470165 0.607648725,5.00102703 0.607648725,5.00875804 C0.607648725,5.01648905 0.611855524,5.02281442 0.616997167,5.02281442 C0.62213881,5.02281442 0.626345609,5.02745303 0.626345609,5.03312243 C0.626345609,5.03876842 0.638966006,5.05521438 0.654390935,5.06966903 C0.669815864,5.08412368 0.682459632,5.09951542 0.682483003,5.1038729 C0.682506374,5.10825381 0.695126771,5.12530888 0.710528329,5.14177828 C0.725929887,5.15824768 0.738526912,5.17417824 0.738526912,5.17717694 C0.738526912,5.18481424 0.901189802,5.36094073 0.979015581,5.43757145 C1.02414518,5.48198962 1.06714802,5.51947331 1.07301416,5.51947331 C1.07701062,5.51947331 1.08635907,5.52790714 1.09376771,5.53821515 C1.10117635,5.54852317 1.11071176,5.556957 1.11494193,5.556957 C1.11919547,5.556957 1.13230666,5.56644506 1.14408569,5.57804157 C1.1558881,5.58963809 1.18587323,5.61599381 1.21076346,5.63660984 C1.23565368,5.65722587 1.26126841,5.67936467 1.26769547,5.68580718 C1.27414589,5.69224969 1.28410198,5.69752083 1.28985127,5.69752083 C1.2955772,5.69752083 1.31079178,5.70806312 1.32364589,5.72094814 C1.3365,5.73383316 1.35084986,5.74437545 1.35552408,5.74437545 C1.3601983,5.74437545 1.37454816,5.75491773 1.38740227,5.76780275 C1.40025637,5.78068777 1.41727054,5.79123006 1.42521671,5.79123006 C1.43316289,5.79123006 1.43966006,5.79544697 1.43966006,5.80060098 C1.43966006,5.80575499 1.44597025,5.8099719 1.45368272,5.8099719 C1.46139518,5.8099719 1.46770538,5.81418882 1.46770538,5.81934283 C1.46770538,5.82449683 1.47431941,5.82871375 1.48240581,5.82871375 C1.49046884,5.82871375 1.50294901,5.83398489 1.51012394,5.8404274 C1.54429249,5.87116403 1.55782436,5.87999612 1.6203187,5.91256008 C1.65722167,5.93177047 1.70328612,5.95660341 1.72273088,5.96775481 C1.74217564,5.97890621 1.76426133,5.98801943 1.7718102,5.98801943 C1.77935907,5.98801943 1.78555241,5.99223635 1.78555241,5.99739035 C1.78555241,6.00254436 1.79606941,6.00676127 1.80892351,6.00676127 C1.82177762,6.00676127 1.83229462,6.01097819 1.83229462,6.0161322 C1.83229462,6.0212862 1.84070822,6.02550312 1.8509915,6.02550312 C1.86127479,6.02550312 1.86968839,6.02972003 1.86968839,6.03487404 C1.86968839,6.04002805 1.88020538,6.04424496 1.89305949,6.04424496 C1.9059136,6.04424496 1.91643059,6.04846188 1.91643059,6.05361589 C1.91643059,6.05876989 1.92400283,6.06298681 1.93325779,6.06298681 C1.94251275,6.06298681 1.9550864,6.06800025 1.96120963,6.07413821 C1.96733286,6.08027616 1.97763952,6.08646097 1.98411331,6.08791346 C2.0172068,6.09526964 2.06600567,6.11527656 2.06600567,6.12150822 C2.06600567,6.12539715 2.07626558,6.12858327 2.08881586,6.12858327 C2.10136615,6.12858327 2.11424363,6.13280018 2.1174221,6.13795419 C2.12060057,6.1431082 2.13322096,6.14732511 2.14546742,6.14732511 C2.15771388,6.14732511 2.17033428,6.15154203 2.17351275,6.15669603 C2.17669122,6.16185004 2.1937755,6.16606696 2.21146742,6.16606696 C2.22915935,6.16606696 2.24362606,6.17028387 2.24362606,6.17543788 C2.24362606,6.18059189 2.25624646,6.1848088 2.27167139,6.1848088 C2.28709632,6.1848088 2.29971671,6.18902572 2.29971671,6.19417972 C2.29971671,6.19933373 2.31628683,6.20355065 2.33654958,6.20355065 C2.35681232,6.20355065 2.376,6.20776756 2.37917847,6.21292157 C2.38235694,6.21807558 2.40154462,6.22229249 2.42180737,6.22229249 C2.44207011,6.22229249 2.45864023,6.22650941 2.45864023,6.23166341 C2.45864023,6.23681742 2.47967422,6.24103434 2.50538244,6.24103434 C2.53109065,6.24103434 2.55212465,6.24525125 2.55212465,6.25040526 C2.55212465,6.25555927 2.57526204,6.25977618 2.60354108,6.25977618 C2.63182011,6.25977618 2.65495751,6.2639931 2.65495751,6.2691471 C2.65495751,6.27460567 2.68592422,6.27851803 2.72918414,6.27851803 C2.77001346,6.27851803 2.80602833,6.28273494 2.8092068,6.28788895 C2.81710623,6.30070368 3.51178895,6.30070368 3.51968839,6.28788895 C3.52286686,6.28273494 3.55441785,6.27851803 3.5898017,6.27851803 C3.62518555,6.27851803 3.65673654,6.27430111 3.65991501,6.2691471 C3.66309348,6.2639931 3.69069476,6.25977618 3.72124079,6.25977618 C3.75202054,6.25977618 3.77677054,6.25560612 3.77677054,6.25040526 C3.77677054,6.24525125 3.79544405,6.24103434 3.81827762,6.24103434 C3.84111119,6.24103434 3.86240227,6.23681742 3.86558074,6.23166341 C3.86875921,6.22650941 3.8876898,6.22229249 3.90764873,6.22229249 C3.92760765,6.22229249 3.94653824,6.21807558 3.94971671,6.21292157 C3.95289518,6.20776756 3.97208286,6.20355065 3.99234561,6.20355065 C4.01260836,6.20355065 4.02917847,6.19933373 4.02917847,6.19417972 C4.02917847,6.18902572 4.04179887,6.1848088 4.0572238,6.1848088 C4.07264873,6.1848088 4.08526912,6.18059189 4.08526912,6.17543788 C4.08526912,6.17028387 4.09763244,6.16606696 4.11275354,6.16606696 C4.12787465,6.16606696 4.14285552,6.16185004 4.14603399,6.15669603 C4.14921246,6.15154203 4.16183286,6.14732511 4.17407932,6.14732511 C4.18632578,6.14732511 4.19894618,6.1431082 4.20212465,6.13795419 C4.20530312,6.13280018 4.21733924,6.12858327 4.22886119,6.12858327 C4.24038314,6.12858327 4.25379816,6.12488175 4.25868272,6.12033685 C4.26926983,6.11052081 4.33935977,6.08643754 4.34936261,6.08917854 C4.35321884,6.09023277 4.35637394,6.0847742 4.35637394,6.07704319 C4.35637394,6.06767227 4.36572238,6.06298681 4.38441926,6.06298681 C4.39984419,6.06298681 4.41246459,6.05876989 4.41246459,6.05361589 C4.41246459,6.04846188 4.42298159,6.04424496 4.43583569,6.04424496 C4.4486898,6.04424496 4.4592068,6.04002805 4.4592068,6.03487404 C4.4592068,6.02972003 4.4676204,6.02550312 4.47790368,6.02550312 C4.48818697,6.02550312 4.49660057,6.0212862 4.49660057,6.0161322 C4.49660057,6.01097819 4.50501416,6.00676127 4.51529745,6.00676127 C4.52558074,6.00676127 4.53399433,6.00254436 4.53399433,5.99739035 C4.53399433,5.99223635 4.54240793,5.98801943 4.55269122,5.98801943 C4.5629745,5.98801943 4.5713881,5.98380251 4.5713881,5.97864851 C4.5713881,5.9734945 4.5798017,5.96927759 4.59008499,5.96927759 C4.60036827,5.96927759 4.60878187,5.96506067 4.60878187,5.95990666 C4.60878187,5.95475266 4.61467139,5.95053574 4.62184632,5.95053574 C4.64577833,5.95053574 4.81409703,5.85410895 4.82223017,5.83574194 C4.82395963,5.83187644 4.83342493,5.82871375 4.84326416,5.82871375 C4.85312677,5.82871375 4.8611898,5.82449683 4.8611898,5.81934283 C4.8611898,5.81418882 4.8675,5.8099719 4.87521246,5.8099719 C4.88292493,5.8099719 4.88923513,5.80575499 4.88923513,5.80060098 C4.88923513,5.79544697 4.89449363,5.79123006 4.90092068,5.79123006 C4.90734773,5.79120663 4.92482932,5.78066434 4.93976346,5.76780275 C4.95469759,5.75491773 4.96995892,5.74437545 4.97365156,5.74437545 C4.97734419,5.74437545 4.99643839,5.72961624 5.01609348,5.71157722 C5.03574858,5.69353819 5.05694618,5.67877899 5.063233,5.67877899 C5.06951983,5.67877899 5.07604037,5.67554602 5.07776983,5.67158681 C5.07947592,5.66762759 5.10191218,5.64759725 5.1276204,5.62707493 C5.15332861,5.60655261 5.18551062,5.57815871 5.19913598,5.56398519 C5.2127847,5.54981167 5.22641006,5.53821515 5.22942493,5.53821515 C5.24786473,5.53821515 5.39405099,5.39404351 5.39405099,5.37586392 C5.39405099,5.35761405 5.37498017,5.33303881 5.32459207,5.28639504 C5.2957755,5.25971134 5.15134207,5.11448547 5.11574788,5.0764161 C5.1120085,5.0723866 5.06054533,5.02096366 5.00141643,4.9621377 C4.94228754,4.90331173 4.88970255,4.85060029 4.88456091,4.84500117 C4.87941926,4.83940204 4.82683428,4.7866906 4.76770538,4.72786464 C4.70857649,4.66903867 4.6559915,4.61632723 4.65084986,4.61072811 C4.64570822,4.60512898 4.59312323,4.55241754 4.53399433,4.49359158 C4.47486544,4.43476561 4.42228045,4.38205417 4.41713881,4.37645505 C4.41199717,4.37085592 4.35941218,4.31814448 4.30028329,4.25931852 C4.24115439,4.20049255 4.18856941,4.14778111 4.18342776,4.14218199 C4.17828612,4.13658286 4.12570113,4.08387142 4.06657224,4.02504545 C4.00744334,3.96621949 3.95485836,3.91350805 3.94971671,3.90790892 C3.94457507,3.9023098 3.89199008,3.84959836 3.83286119,3.79077239 C3.77373229,3.73194643 3.72114731,3.67923499 3.71600567,3.67363586 C3.71086402,3.66803674 3.65827904,3.6153253 3.59915014,3.55649933 C3.54002125,3.49767337 3.48743626,3.44496193 3.48229462,3.4393628 C3.47715297,3.43376368 3.42456799,3.38105224 3.36543909,3.32222627 C3.3063102,3.26340031 3.25372521,3.21068887 3.24858357,3.20508974 C3.24344193,3.19949062 3.19085694,3.14677918 3.13172805,3.08795321 C3.07259915,3.02912725 3.02001416,2.97641581 3.01487252,2.97081668 C3.00973088,2.96521756 2.95714589,2.91250612 2.898017,2.85368015 C2.8388881,2.79485419 2.78630312,2.74214275 2.78116147,2.73654362 C2.77601983,2.7309445 2.72343484,2.67823306 2.66430595,2.61940709 C2.60517705,2.56058113 2.55259207,2.50786969 2.54745042,2.50227056 C2.54230878,2.49667143 2.4897238,2.44396 2.4305949,2.38513403 C2.37146601,2.32630806 2.31888102,2.27359663 2.31373938,2.2679975 C2.30859773,2.26239837 2.25601275,2.20968694 2.19688385,2.15086097 C2.13775496,2.092035 2.08516997,2.03932357 2.08002833,2.03372444 C2.07488669,2.02812531 2.0223017,1.97541387 1.9631728,1.91658791 C1.90404391,1.85776194 1.85145892,1.8050505 1.84631728,1.79945138 C1.84117564,1.79385225 1.78859065,1.74114081 1.72946176,1.68231485 C1.67033286,1.62348888 1.61774788,1.57077744 1.61260623,1.56517832 C1.60746459,1.55957919 1.5548796,1.50686775 1.49575071,1.44804179 C1.43662181,1.38921582 1.38403683,1.33650438 1.37889518,1.33090526 C1.37375354,1.32530613 1.32116856,1.27259469 1.26203966,1.21376873 C1.20291076,1.15494276 1.15032578,1.10223132 1.14518414,1.0966322 C1.14004249,1.09103307 1.08745751,1.03832163 1.02832861,0.979495667 C0.969199717,0.920669701 0.916614731,0.867958262 0.911473088,0.862359136 C0.906331445,0.85676001 0.853746459,0.804048571 0.794617564,0.745222606 C0.735488669,0.68639664 0.682903683,0.633685202 0.67776204,0.628086076 C0.672620397,0.622486949 0.620035411,0.569775511 0.560906516,0.510949545 C0.50177762,0.45212358 0.449192635,0.399365286 0.444050992,0.393695878 C0.438909348,0.388049898 0.388427762,0.337962317 0.331869688,0.28236932 C0.275311615,0.22679975 0.222189093,0.173221501 0.213822238,0.163288323 C0.160816572,0.100456288 0.0433300283,0 0.0228335694,0 L0,0 L0,1.59249456 M3.08031161,0.00937092243 C3.07713314,0.0145249298 3.04532507,0.0187418449 3.00963739,0.0187418449 C2.97261756,0.0187418449 2.94475921,0.0227713415 2.94475921,0.0281127673 C2.94475921,0.0333136292 2.92000921,0.0374836897 2.88922946,0.0374836897 C2.85868343,0.0374836897 2.83108215,0.0417006048 2.82790368,0.0468546121 C2.82472521,0.0520086195 2.80369122,0.0562255346 2.78116147,0.0562255346 C2.75863173,0.0562255346 2.73759773,0.0604424496 2.73441926,0.065596457 C2.73124079,0.0707504643 2.71205312,0.0749673794 2.69179037,0.0749673794 C2.67152762,0.0749673794 2.65495751,0.0791842945 2.65495751,0.0843383018 C2.65495751,0.0894923092 2.64369263,0.0937092243 2.62990368,0.0937092243 C2.60440581,0.0937092243 2.5511898,0.108117017 2.52185907,0.12296993 C2.5129313,0.1274914 2.49505241,0.131192914 2.48212819,0.131192914 C2.46920397,0.131192914 2.45864023,0.135409829 2.45864023,0.140563836 C2.45864023,0.145717844 2.45207295,0.149934759 2.44403329,0.149934759 C2.41954037,0.149934759 2.33711048,0.17966401 2.33711048,0.188496105 C2.33711048,0.193064429 2.32685057,0.196789371 2.31430028,0.196789371 C2.30175,0.196789371 2.28887252,0.201006286 2.28569405,0.206160293 C2.28251558,0.211314301 2.2717415,0.215531216 2.26176204,0.215531216 C2.25178258,0.215531216 2.24362606,0.219748131 2.24362606,0.224902138 C2.24362606,0.230056146 2.23126275,0.234273061 2.21614164,0.234273061 C2.20102054,0.234273061 2.18603966,0.238489976 2.18286119,0.243643983 C2.17968272,0.24879799 2.16890864,0.253014905 2.15892918,0.253014905 C2.14894972,0.253014905 2.14076983,0.256177592 2.14072309,0.260043097 C2.1406296,0.2684535 2.09535977,0.290498595 2.07815864,0.290498595 C2.0714745,0.290498595 2.06600567,0.29471551 2.06600567,0.299869518 C2.06600567,0.305023525 2.05759207,0.30924044 2.04730878,0.30924044 C2.0370255,0.30924044 2.0286119,0.313457355 2.0286119,0.318611362 C2.0286119,0.32376537 2.0201983,0.327982285 2.00991501,0.327982285 C1.99963173,0.327982285 1.99121813,0.3321992 1.99121813,0.337353207 C1.99121813,0.342507215 1.98502479,0.34672413 1.97745255,0.34672413 C1.96988031,0.34672413 1.94569122,0.357383554 1.92369901,0.370432563 C1.9017068,0.383481573 1.87214235,0.39863904 1.85800283,0.404144457 C1.84388669,0.409649874 1.8346551,0.41794314 1.83752975,0.422605174 C1.84040439,0.427267208 1.83619759,0.431062432 1.8281813,0.431062432 C1.82016501,0.431062432 1.81359773,0.435279347 1.81359773,0.440433354 C1.81359773,0.445587361 1.80518414,0.449804276 1.79490085,0.449804276 C1.78461756,0.449804276 1.77620397,0.454021192 1.77620397,0.459175199 C1.77620397,0.464329206 1.7697068,0.468546121 1.76178399,0.468546121 C1.75386119,0.468546121 1.73834278,0.476979951 1.72731161,0.487287966 C1.71628045,0.497595981 1.69543343,0.511277528 1.68096671,0.517673182 C1.6665,0.524092264 1.65467422,0.532526094 1.65467422,0.536438454 C1.65467422,0.540327387 1.64941572,0.543536928 1.64298867,0.543560355 C1.63656161,0.543583783 1.61863598,0.555508281 1.60314093,0.570056638 C1.58764589,0.584604996 1.5571466,0.608360284 1.53536473,0.622814932 C1.51358286,0.63726958 1.49575071,0.652731602 1.49575071,0.657206217 C1.49575071,0.661680832 1.49159065,0.665335492 1.48651912,0.665335492 C1.47611898,0.665335492 1.45115864,0.684709874 1.40796884,0.726246488 C1.39188952,0.74170851 1.36316643,0.764878116 1.34411898,0.777716279 C1.3250949,0.790554443 1.30443484,0.81058479 1.29821813,0.822204734 C1.29202479,0.833848105 1.28494334,0.841344843 1.28251275,0.838908403 C1.27489377,0.831294528 1.20594901,0.905957353 1.20594901,0.921817639 C1.20594901,0.937959053 1.22749717,0.96789915 1.25666431,0.992310403 C1.26657365,1.00060367 1.32002337,1.05376023 1.37545963,1.11045431 C1.43091926,1.16714839 1.48088669,1.21775137 1.48651912,1.22290538 C1.49217493,1.22805938 1.54480666,1.28077082 1.6034915,1.34004191 C1.66217635,1.39931299 1.71476133,1.45202443 1.72034703,1.45717844 C1.72593272,1.46233244 1.77851771,1.51504388 1.83720255,1.57431497 C1.89588739,1.63358605 1.94847238,1.68629749 1.95405807,1.6914515 C1.95964377,1.69660551 2.01222875,1.74931694 2.0709136,1.80858803 C2.12959844,1.86785911 2.18218343,1.92057055 2.18776912,1.92572456 C2.19335482,1.93087857 2.2459398,1.98359 2.30462465,2.04286109 C2.36330949,2.10213217 2.41589448,2.15484361 2.42148017,2.15999762 C2.42706586,2.16515163 2.47965085,2.21786307 2.53833569,2.27713415 C2.59702054,2.33640523 2.64960552,2.38911667 2.65519122,2.39427068 C2.66077691,2.39942469 2.7133619,2.45213613 2.77204674,2.51140721 C2.83073159,2.57067829 2.88331657,2.62338973 2.88890227,2.62854374 C2.89448796,2.63369775 2.94707295,2.68640919 3.00575779,2.74568027 C3.06444263,2.80495136 3.11702762,2.85766279 3.12261331,2.8628168 C3.12819901,2.86797081 3.18078399,2.92068225 3.23946884,2.97995333 C3.29815368,3.03922442 3.35073867,3.09193585 3.35632436,3.09708986 C3.36191006,3.10224387 3.41449504,3.15495531 3.47317989,3.21422639 C3.53186473,3.27349748 3.58444972,3.32620892 3.59003541,3.33136292 C3.5956211,3.33651693 3.64820609,3.38922837 3.70689093,3.44849945 C3.76557578,3.50777054 3.81816076,3.56048198 3.82374646,3.56563598 C3.82933215,3.57078999 3.88191714,3.62350143 3.94060198,3.68277251 C3.99928683,3.7420436 4.05187181,3.79475504 4.05745751,3.79990904 C4.0630432,3.80506305 4.11562819,3.85777449 4.17431303,3.91704557 C4.23299788,3.97631666 4.28558286,4.0290281 4.29116856,4.0341821 C4.29675425,4.03933611 4.34933924,4.09204755 4.40802408,4.15131863 C4.46670892,4.21058972 4.51929391,4.26330116 4.5248796,4.26845516 C4.5304653,4.27360917 4.58305028,4.32632061 4.64173513,4.3855917 C4.70041997,4.44486278 4.75300496,4.49757422 4.75859065,4.50272823 C4.76417635,4.50788223 4.81676133,4.56059367 4.87544618,4.61986476 C4.93413102,4.67913584 4.98671601,4.73184728 4.9923017,4.73700129 C4.99788739,4.74215529 5.05047238,4.79486673 5.10915722,4.85413782 C5.16784207,4.9134089 5.22042705,4.96612034 5.22601275,4.97127435 C5.23159844,4.97642835 5.28418343,5.02913979 5.34286827,5.08841088 C5.40155312,5.14768196 5.4541381,5.2003934 5.4597238,5.20554741 C5.46530949,5.21070141 5.51789448,5.26341285 5.57657932,5.32268394 C5.63526416,5.38195502 5.68784915,5.43466646 5.69343484,5.43982047 C5.69902054,5.44497448 5.75160552,5.49768591 5.81029037,5.556957 C5.86897521,5.61622808 5.9215602,5.66893952 5.92714589,5.67409353 C5.93273159,5.67924754 5.98531657,5.73195897 6.04400142,5.79123006 C6.10268626,5.85050114 6.15527125,5.90321258 6.16085694,5.90836659 C6.16644263,5.9135206 6.21902762,5.96623204 6.27771246,6.02550312 C6.33639731,6.0847742 6.38769688,6.13636113 6.39171671,6.14015636 C6.39573654,6.14392815 6.43373796,6.18082616 6.47620326,6.22215193 C6.53079816,6.27526163 6.56022238,6.29725987 6.57669901,6.29725987 L6.6,6.29725987 L6.6,4.6995176 C6.6,3.64060336 6.5968449,3.10177532 6.59065156,3.10177532 C6.58478541,3.10177532 6.58130312,3.04243396 6.58130312,2.94246964 C6.58130312,2.84250533 6.57782082,2.78316396 6.57195467,2.78316396 C6.56655595,2.78316396 6.56260623,2.75366898 6.56260623,2.7134443 C6.56260623,2.6750938 6.55839943,2.64110078 6.55325779,2.63791466 C6.54811615,2.63472855 6.54390935,2.61153552 6.54390935,2.58637459 C6.54390935,2.56121366 6.53970255,2.53802063 6.53456091,2.53483452 C6.52941926,2.5316484 6.52521246,2.51056383 6.52521246,2.4879799 C6.52521246,2.46539598 6.52100567,2.44431141 6.51586402,2.44112529 C6.51072238,2.43793918 6.50651558,2.42107152 6.50651558,2.4036416 C6.50651558,2.38621169 6.50230878,2.36934403 6.49716714,2.36615791 C6.4920255,2.3629718 6.4878187,2.35142214 6.4878187,2.34050501 C6.4878187,2.31651545 6.47206657,2.2634526 6.45416431,2.22718713 C6.44696601,2.21259192 6.44107649,2.19068739 6.44107649,2.17852862 C6.44107649,2.16636985 6.43686969,2.15381281 6.43172805,2.1506267 C6.4265864,2.14744058 6.4223796,2.13242368 6.4223796,2.11726621 C6.4223796,2.10210875 6.4181728,2.0897157 6.41303116,2.0897157 C6.40788952,2.0897157 6.40368272,2.08153957 6.40368272,2.07153611 C6.40368272,2.06153265 6.39947592,2.05073266 6.39433428,2.04754655 C6.38919263,2.04436044 6.38498584,2.02934353 6.38498584,2.01418607 C6.38498584,1.9990286 6.38077904,1.98663555 6.37563739,1.98663555 C6.37049575,1.98663555 6.36628895,1.97845942 6.36628895,1.96845596 C6.36628895,1.95845251 6.36208215,1.94765252 6.35694051,1.9444664 C6.35179887,1.94128029 6.34759207,1.92837184 6.34759207,1.91579138 C6.34759207,1.90321092 6.34338527,1.89292633 6.33824363,1.89292633 C6.33310198,1.89292633 6.32889518,1.8844925 6.32889518,1.87418449 C6.32889518,1.86387647 6.32468839,1.85544264 6.31954674,1.85544264 C6.3144051,1.85544264 6.3101983,1.84700881 6.3101983,1.8367008 C6.3101983,1.82639278 6.3059915,1.81795895 6.30084986,1.81795895 C6.29570822,1.81795895 6.29150142,1.81050907 6.29150142,1.80141927 C6.29150142,1.77686746 6.23618201,1.66774306 6.22073371,1.66179253 C6.21337181,1.65895782 6.20736544,1.64867324 6.20736544,1.63890405 C6.20736544,1.62915829 6.20315864,1.62116958 6.198017,1.62116958 C6.19287535,1.62116958 6.18866856,1.61510191 6.18866856,1.60769888 C6.18866856,1.59059695 6.13465793,1.49142916 6.11217493,1.46722875 C6.10282649,1.45717844 6.09518414,1.44342661 6.09518414,1.43667954 C6.09518414,1.42990905 6.09097734,1.42438021 6.08583569,1.42438021 C6.08069405,1.42438021 6.07648725,1.41885136 6.07648725,1.41208087 C6.07648725,1.40533381 6.06807365,1.3907386 6.05779037,1.37968091 C6.04750708,1.36862322 6.03909348,1.35693299 6.03909348,1.35370003 C6.03909348,1.34592216 5.95479391,1.23646979 5.93392351,1.21711883 C5.92492564,1.20877871 5.91756374,1.19718219 5.91756374,1.1913488 C5.91756374,1.1855154 5.91335694,1.18073623 5.9082153,1.18073623 C5.90307365,1.18073623 5.89886686,1.17595706 5.89886686,1.17012366 C5.89886686,1.16429026 5.89145822,1.15269374 5.8824136,1.14435362 C5.87334561,1.1360135 5.85343343,1.11232849 5.83814873,1.09171246 C5.80267139,1.04382705 5.50957436,0.749673794 5.49735127,0.749673794 C5.49230312,0.749673794 5.47391006,0.735406565 5.45649858,0.717953222 C5.43908711,0.700499879 5.41475779,0.680867796 5.40244122,0.67430815 C5.39012465,0.667771932 5.3679221,0.648303841 5.35312819,0.631084771 C5.33833428,0.613842273 5.32040864,0.599739035 5.31330382,0.599739035 C5.30619901,0.599739035 5.2871983,0.58708829 5.27104887,0.571626268 C5.25489943,0.556164246 5.23695042,0.543513501 5.23113102,0.543513501 C5.22531161,0.543513501 5.21449079,0.535079671 5.20708215,0.524771656 C5.19967351,0.514463641 5.18611827,0.506029811 5.17698017,0.506029811 C5.1678187,0.506029811 5.16033994,0.501812896 5.16033994,0.496658889 C5.16033994,0.491504881 5.15402975,0.487287966 5.14631728,0.487287966 C5.13860482,0.487287966 5.13229462,0.484054998 5.13229462,0.48011921 C5.13229462,0.476183423 5.11651912,0.466062827 5.09723796,0.457628997 C5.06631799,0.444111441 5.05257578,0.434693664 5.00415085,0.393742733 C4.99793414,0.388495016 4.98860907,0.384207819 4.98339731,0.384207819 C4.97818555,0.384207819 4.95803966,0.375118025 4.9385949,0.364013482 C4.8520517,0.314581866 4.80189731,0.290498595 4.78544405,0.290498595 C4.7756983,0.290498595 4.76770538,0.28628168 4.76770538,0.281127673 C4.76770538,0.275973665 4.75929178,0.27175675 4.7490085,0.27175675 C4.73872521,0.27175675 4.73031161,0.267539835 4.73031161,0.262385828 C4.73031161,0.257231821 4.72189802,0.253014905 4.71161473,0.253014905 C4.70133144,0.253014905 4.69291785,0.24879799 4.69291785,0.243643983 C4.69291785,0.238489976 4.68240085,0.234273061 4.66954674,0.234273061 C4.65669263,0.234273061 4.64617564,0.230056146 4.64617564,0.224902138 C4.64617564,0.219748131 4.63355524,0.215531216 4.61813031,0.215531216 C4.60270538,0.215531216 4.59008499,0.211314301 4.59008499,0.206160293 C4.59008499,0.201006286 4.57746459,0.196789371 4.56203966,0.196789371 C4.54661473,0.196789371 4.53399433,0.193392412 4.53399433,0.189222351 C4.53399433,0.179898283 4.46785411,0.149934759 4.44726416,0.149934759 C4.43901416,0.149934759 4.42966572,0.145717844 4.42648725,0.140563836 C4.42330878,0.135409829 4.40858499,0.131192914 4.39376771,0.131192914 C4.37895042,0.131192914 4.36422663,0.126975999 4.36104816,0.121821992 C4.35786969,0.116667984 4.34288881,0.112451069 4.32776771,0.112451069 C4.3126466,0.112451069 4.30028329,0.108234154 4.30028329,0.103080147 C4.30028329,0.0979261393 4.28371317,0.0937092243 4.26345042,0.0937092243 C4.24318768,0.0937092243 4.224,0.0894923092 4.22082153,0.0843383018 C4.21764306,0.0791842945 4.19845538,0.0749673794 4.17819263,0.0749673794 C4.15792989,0.0749673794 4.14135977,0.0707504643 4.14135977,0.065596457 C4.14135977,0.0604424496 4.12032578,0.0562255346 4.09461756,0.0562255346 C4.06890935,0.0562255346 4.04787535,0.0520086195 4.04787535,0.0468546121 C4.04787535,0.0417006048 4.02473796,0.0374836897 3.99645892,0.0374836897 C3.96817989,0.0374836897 3.94504249,0.0332667746 3.94504249,0.0281127673 C3.94504249,0.022654205 3.91407578,0.0187418449 3.87081586,0.0187418449 C3.82998654,0.0187418449 3.79397167,0.0145249298 3.7907932,0.00937092243 C3.78710057,0.00339695938 3.65844263,0 3.43555241,0 C3.21266218,0 3.08400425,0.00339695938 3.08031161,0.00937092243" id="path3"></path>
                        </g>
                    </g>
                    <g id="BitcoinSign" transform="translate(5.652000, 3.860000)" fill="#FFFFFF" fill-rule="nonzero">
                        <path d="M4.62581571,3.66585912 C5.0458689,3.4501414 5.30868678,3.0702298 5.24729422,2.43731679 C5.1646183,1.57237586 4.42378165,1.28234096 3.48857655,1.19974357 L3.48839618,0 L2.7637926,0 L2.76358968,1.16819232 C2.57294132,1.16819232 2.37859542,1.17196846 2.18512881,1.17588109 L2.18497099,0.000159234846 L1.46102123,9.09913403e-05 L1.46088596,1.19953884 C1.30398884,1.20276903 1.14990997,1.20583999 0.999460993,1.20583999 L0.999460993,1.20229133 L0,1.20188187 L0.000135275569,1.98172315 C0.000135275569,1.98172315 0.535240334,1.97157761 0.526424876,1.98142743 C0.819815038,1.98163216 0.915612687,2.15337831 0.943163811,2.30162595 L0.94338927,3.66838413 L0.94338927,5.58823317 C0.930470453,5.68127181 0.876112221,5.82992891 0.670966821,5.83020189 C0.680300835,5.8384821 0.143865567,5.8301109 0.143865567,5.8301109 L0.000135275569,6.70214915 L0.942938352,6.70214915 C1.11861622,6.70235388 1.29122785,6.70510637 1.46057032,6.70647124 L1.4612016,7.91979527 L2.18497099,7.92 L2.18476807,6.71939201 C2.38389371,6.72348662 2.57609775,6.72526095 2.76383769,6.72501073 L2.76363478,7.92 L3.48821581,7.92 L3.48862164,6.70870053 C4.70659777,6.63818224 5.55928477,6.32887993 5.66529573,5.17583766 C5.75074479,4.24752126 5.31732187,3.8331467 4.62581571,3.66585912 Z M2.20244408,2.03436164 C2.61111157,2.03436164 3.89636475,1.90317487 3.89654512,2.76374822 C3.89636475,3.58878945 2.6115174,3.49240688 2.20244408,3.49240688 L2.20244408,2.03436164 Z M2.20212844,5.83611632 L2.20244408,4.22848132 C2.6934493,4.22834484 4.23349401,4.08605713 4.23369693,5.03193486 C4.23389984,5.93902753 2.6934493,5.83575236 2.20212844,5.83611632 Z" id="Shape"></path>
                    </g>
                    <polygon id="Path" fill="#FFFFFF" fill-rule="nonzero" points="36.4786201 38.6301587 39.1155439 40.1680713 41.7533721 38.6301587 39.1459141 34.1493604"></polygon>
                    <polygon id="Path-2" fill="#FFFFFF" fill-rule="nonzero" points="36.509293 39.1039246 39.1167751 40.6367539 41.7043473 39.1628685 39.1167751 42.7886869"></polygon>
                </g>
            </g>
        </g>
    </g>
</svg>