<?xml version="1.0" encoding="UTF-8"?>
<svg width="66px" height="66px" viewBox="0 0 66 66" version="1.1" xmlns="http://www.w3.org/2000/svg" xmlns:xlink="http://www.w3.org/1999/xlink">
    <!-- Generator: sketchtool 52.5 (67469) - http://www.bohemiancoding.com/sketch -->
    <title>D8890344-DFD2-4525-ADD7-73E9BAB9AE25</title>
    <desc>Created with sketchtool.</desc>
    <g id="Change-Now" stroke="none" stroke-width="1" fill="none" fill-rule="evenodd">
        <g id="Successful_Noemail" transform="translate(-155.000000, -73.000000)" fill-rule="nonzero">
            <g id="ic_success" transform="translate(188.000000, 106.000000) rotate(-18.000000) translate(-188.000000, -106.000000) translate(155.000000, 73.000000)">
                <g id="Group-5" fill="#7ED321">
                    <circle id="Oval" cx="33" cy="33" r="33"></circle>
                </g>
                <path d="M32,27.8793153 C35.3137085,27.8793153 38,29.8703382 38,25.9553327 C38,22.0403271 37.1099288,15 32,15 C26.8900712,15 26,22.0403271 26,25.9553327 C26,29.8703382 28.6862915,27.8793153 32,27.8793153 Z" id="Oval" fill="#347526"></path>
                <path d="M52.5,27.9171353 C55.5375661,27.9171353 58,29.7594142 58,26.1368884 C58,22.5143627 57.1841014,16 52.5,16 C47.8158986,16 47,22.5143627 47,26.1368884 C47,29.7594142 49.4624339,27.9171353 52.5,27.9171353 Z" id="Oval" fill="#347526"></path>
                <path d="M26.5088108,51.361252 C28.6707991,42.4537507 33.6232435,38 41.3661439,38 C49.1090419,38 54.0614856,42.4537479 56.223475,51.3612437 L56.2234864,51.3612409 C56.4840201,52.4346515 55.8250531,53.516027 54.7516425,53.7765606 C54.5971971,53.814047 54.4388341,53.8329906 54.2799046,53.8329906 L28.4523973,53.833007 C27.3478187,53.833007 26.4523808,52.9375692 26.4523808,51.8329906 C26.4523808,51.6740608 26.4713244,51.5156976 26.5088108,51.361252 Z" id="Path-3" fill="#347526" transform="translate(41.366144, 45.916495) scale(1, -1) translate(-41.366144, -45.916495) "></path>
            </g>
        </g>
    </g>
</svg>